<svg width="16" height="16" viewBox="0 0 16 16" fill="none" xmlns="http://www.w3.org/2000/svg">
<g clip-path="url(#clip0_1_1536)">
<path d="M16 15.646V9.72998C16 6.55998 14.308 5.08499 12.052 5.08499C10.2315 5.08499 9.4155 6.08649 8.961 6.78949V5.32749H5.531C5.5765 6.29599 5.531 15.646 5.531 15.646H8.961V9.88348C8.961 9.57598 8.983 9.26748 9.074 9.04748C9.3215 8.43098 9.886 7.79299 10.833 7.79299C12.0745 7.79299 12.5705 8.73899 12.5705 10.126V15.6465H16V15.646ZM1.9175 3.91898C3.113 3.91898 3.8585 3.12599 3.8585 2.13549C3.8365 1.12349 3.1135 0.353485 1.9405 0.353485C0.7675 0.353485 0 1.12299 0 2.13549C0 3.12599 0.7445 3.91898 1.896 3.91898H1.9175ZM3.6325 15.646V5.32749H0.203V15.646H3.6325Z" fill="white"/>
</g>
<defs>
<clipPath id="clip0_1_1536">
<rect width="16" height="16" fill="white"/>
</clipPath>
</defs>
</svg>
