<svg width="17" height="14" viewBox="0 0 17 14" fill="none" xmlns="http://www.w3.org/2000/svg">
<path d="M16.7077 2.04885C16.1008 2.31864 15.4476 2.50062 14.7622 2.58206C15.462 2.16314 15.9986 1.49956 16.2516 0.707964C15.5971 1.09639 14.8725 1.37824 14.1007 1.53039C13.483 0.872182 12.6026 0.460632 11.6283 0.460632C9.75794 0.460632 8.24144 1.97713 8.24144 3.84788C8.24144 4.11297 8.27127 4.37136 8.32925 4.6197C5.51408 4.47827 3.01797 3.13001 1.34731 1.08064C1.05574 1.58066 0.88884 2.16246 0.88884 2.78381C0.88884 3.95881 1.48673 4.99572 2.39562 5.603C1.84063 5.58523 1.31815 5.43275 0.861358 5.17905C0.861023 5.19312 0.861023 5.20753 0.861023 5.22194C0.861023 6.86278 2.02865 8.23149 3.57833 8.54317C3.29413 8.62025 2.99485 8.6618 2.68585 8.6618C2.46734 8.6618 2.2552 8.64069 2.04842 8.60081C2.47974 9.94639 3.73048 10.926 5.21246 10.9531C4.05322 11.8617 2.59302 12.4033 1.0058 12.4033C0.732665 12.4033 0.462879 12.3872 0.197784 12.3557C1.69719 13.3172 3.47745 13.8776 5.39008 13.8776C11.6206 13.8776 15.0273 8.71643 15.0273 4.24032C15.0273 4.09353 15.0243 3.94708 15.0179 3.80163C15.6795 3.32506 16.2539 2.72818 16.7077 2.04885Z" fill="white"/>
</svg>
