<svg width="319" height="38" viewBox="0 0 319 38" fill="none" xmlns="http://www.w3.org/2000/svg">
<g clip-path="url(#clip0_1_63)">
<path d="M18.7721 13.0774C29.0173 13.0774 40.1534 12.6391 51.2894 12.2L90.4885 9.12882C105.188 7.81307 115.879 6.49663 123.006 6.05827C147.505 4.30348 171.113 2.98706 193.831 2.5487H195.613C199.177 2.5487 207.64 2.5487 217.885 1.67131H228.13C235.257 1.23295 243.721 0.793913 250.848 0.793913C265.548 0.355558 275.793 0.35556 280.692 0.35556H283.809C284.7 0.35556 285.591 0.355558 286.037 0.793913C287.372 1.23227 287.819 2.10966 288.263 3.42609C288.708 5.18088 288.263 6.49731 286.481 7.81307L285.145 8.25143C283.809 8.68978 280.691 8.68978 275.792 9.12882L237.929 11.761C219.666 12.6384 205.857 13.5158 196.503 14.3932C187.148 14.8315 174.676 15.7089 159.976 17.0254C130.131 18.7801 105.632 21.4123 80.687 24.9232L63.76 27.1157C73.5602 26.6774 79.3504 26.2383 80.687 26.2383L81.1321 25.8H82.468C82.9131 25.8 83.3589 25.8 84.2498 25.3616C86.0315 25.3616 88.704 25.3616 91.8224 24.9232L126.121 23.1685C133.694 22.7301 145.721 22.7301 161.311 22.2911L196.501 20.9753C227.236 19.6596 266.88 19.2205 314.989 19.2205C320.335 19.2205 320.335 27.1177 314.989 27.1177C265.545 27.1177 226.346 27.5561 196.501 28.8725L162.647 30.1876C147.503 30.626 136.365 30.626 129.239 31.065C128.794 31.065 128.794 31.065 128.348 31.5034L127.457 32.3807H126.567C125.676 32.8191 118.103 32.8191 103.849 33.2581C97.1675 33.6965 91.8224 33.6965 88.704 33.6965H84.2498C82.023 33.6965 76.232 34.1349 66.4319 35.0122L42.3781 36.3273C31.242 37.2047 22.7785 37.6437 16.9876 37.6437H8.07904C6.7431 37.2047 5.85155 37.2047 5.40647 37.2047C4.96138 36.7664 4.07052 36.7664 3.62475 36.7664L1.39795 35.0116C0.0613201 32.8184 0.507093 29.7465 3.62475 28.4315C4.51561 27.9931 5.40647 27.9931 6.7431 27.9931H9.86075C17.4334 26.6774 24.1145 25.8 29.9054 24.4835L67.7686 18.7801C48.6148 20.0959 32.1329 20.9733 18.77 20.9733C13.4263 20.974 13.4263 13.0774 18.7721 13.0774Z" fill="#FFE2AC"/>
</g>
<defs>
<clipPath id="clip0_1_63">
<rect width="319" height="38" fill="white"/>
</clipPath>
</defs>
</svg>
