<svg id="pic" width="76" height="76" viewBox="0 0 76 76" fill="none" xmlns="http://www.w3.org/2000/svg">
<g clip-path="url(#clip0_1_71)">
<path d="M15.2887 66.5L15.2253 66.5633L15.1588 66.5H9.47468C8.64125 66.4992 7.84225 66.1675 7.25323 65.5779C6.6642 64.9883 6.33334 64.1889 6.33334 63.3555V12.6445C6.33914 11.8129 6.67186 11.0169 7.25963 10.4285C7.84741 9.84016 8.64305 9.50663 9.47468 9.5H66.5253C68.2607 9.5 69.6667 10.9092 69.6667 12.6445V63.3555C69.6609 64.1871 69.3282 64.9831 68.7404 65.5715C68.1526 66.1598 67.357 66.4934 66.5253 66.5H15.2887ZM63.3333 47.5V15.8333H12.6667V60.1667L44.3333 28.5L63.3333 47.5ZM63.3333 56.4553L44.3333 37.4553L21.622 60.1667H63.3333V56.4553ZM25.3333 34.8333C23.6536 34.8333 22.0427 34.1661 20.855 32.9783C19.6673 31.7906 19 30.1797 19 28.5C19 26.8203 19.6673 25.2094 20.855 24.0217C22.0427 22.8339 23.6536 22.1667 25.3333 22.1667C27.013 22.1667 28.624 22.8339 29.8117 24.0217C30.9994 25.2094 31.6667 26.8203 31.6667 28.5C31.6667 30.1797 30.9994 31.7906 29.8117 32.9783C28.624 34.1661 27.013 34.8333 25.3333 34.8333Z"/>
</g>
<defs>
<clipPath id="clip0_1_71">
<rect width="76" height="76" fill="white"/>
</clipPath>
</defs>
</svg>
